<?xml version="1.0" standalone="no"?>
<!DOCTYPE svg PUBLIC "-//W3C//DTD SVG 20010904//EN"
 "http://www.w3.org/TR/2001/REC-SVG-20010904/DTD/svg10.dtd">
<svg version="1.0" xmlns="http://www.w3.org/2000/svg"
 width="1080.000000pt" height="1080.000000pt" viewBox="0 0 1080.000000 1080.000000"
 preserveAspectRatio="xMidYMid meet">
<metadata>
Created by potrace 1.15, written by Peter Selinger 2001-2017
</metadata>
<g transform="translate(0.000000,1080.000000) scale(0.100000,-0.100000)"
fill="#000000" stroke="none">
<path d="M4975 10789 c-1137 -90 -2232 -545 -3100 -1290 -154 -132 -442 -420
-574 -574 -676 -788 -1114 -1761 -1256 -2790 -61 -444 -61 -1026 0 -1470 142
-1028 580 -2001 1256 -2790 130 -152 418 -440 574 -574 806 -693 1816 -1138
2870 -1265 411 -50 911 -50 1315 0 1050 130 2024 556 2840 1244 173 146 474
447 620 620 745 884 1181 1948 1270 3099 13 174 13 628 0 802 -89 1159 -539
2247 -1291 3124 -132 154 -420 442 -574 574 -879 754 -1963 1201 -3124 1291
-158 12 -667 11 -826 -1z m590 -286 c58 -93 133 -217 1181 -1938 549 -902 998
-1649 997 -1660 -1 -11 -5 -51 -8 -90 -4 -38 -2 -89 3 -112 l10 -41 -407 -219
-406 -219 -26 50 c-14 28 -282 617 -595 1309 l-569 1257 -495 0 -495 0 -228
-537 c-125 -295 -224 -540 -220 -544 14 -13 666 -382 683 -386 13 -3 27 30 73
174 58 181 142 487 153 556 4 20 10 37 15 37 5 0 9 -4 9 -10 0 -17 160 -459
247 -685 47 -121 263 -645 479 -1164 217 -520 393 -945 391 -946 -1 -1 -146
108 -322 242 -176 134 -396 300 -489 371 -259 195 -837 634 -1075 814 -117 90
-218 166 -223 169 -7 4 -6 21 2 45 20 61 15 170 -11 239 -17 46 -38 75 -88
125 l-66 65 6 595 c4 327 10 980 14 1450 4 470 11 877 14 905 l6 49 120 28
c231 53 559 101 825 121 25 2 138 4 252 5 l208 2 35 -57z m372 32 c987 -104
1916 -489 2711 -1123 l24 -18 -26 -180 c-78 -552 -241 -1708 -266 -1889 -16
-115 -32 -225 -35 -243 l-6 -32 -43 29 c-68 47 -134 64 -230 59 -72 -4 -91 -9
-150 -42 -38 -20 -70 -36 -71 -34 -2 2 -450 737 -995 1633 -546 897 -1023
1681 -1061 1743 l-69 112 35 0 c20 0 101 -7 182 -15z m-1986 -1307 c-6 -618
-13 -1220 -16 -1338 -3 -118 -5 -268 -5 -332 l0 -118 -43 0 c-24 0 -66 -7 -93
-15 -27 -8 -52 -15 -55 -15 -4 0 -80 84 -170 187 -232 264 -436 497 -639 728
-96 109 -227 258 -290 330 -105 120 -373 424 -527 599 l-63 71 47 40 c166 143
429 330 666 472 166 100 528 279 709 352 137 55 480 172 486 166 2 -2 -1 -509
-7 -1127z m5130 -214 c387 -394 679 -800 924 -1284 286 -567 453 -1134 532
-1805 25 -219 25 -825 0 -1050 -44 -381 -126 -759 -239 -1101 l-61 -185 -121
183 c-67 101 -212 320 -322 488 -839 1272 -1026 1554 -1244 1885 -88 132 -176
266 -196 298 l-36 58 28 27 c15 15 43 51 62 81 31 49 36 67 58 220 47 333 236
1675 285 2021 27 195 52 370 55 387 l6 33 47 -39 c25 -21 125 -119 222 -217z
m-6990 29 c85 -98 224 -257 309 -353 185 -210 373 -424 616 -700 99 -113 261
-297 359 -409 99 -112 194 -220 211 -239 l30 -35 -27 -51 c-37 -69 -53 -161
-40 -232 6 -30 13 -59 16 -63 2 -5 -55 -45 -128 -89 -72 -43 -215 -130 -317
-192 -102 -62 -205 -125 -230 -140 -43 -26 -280 -170 -530 -323 -63 -39 -146
-89 -185 -112 -38 -23 -153 -93 -255 -155 -102 -62 -205 -125 -230 -140 -25
-15 -128 -78 -230 -140 -102 -62 -205 -125 -230 -140 -25 -15 -139 -85 -255
-155 -116 -70 -230 -140 -255 -155 -89 -53 -411 -250 -435 -266 -24 -15 -24
-15 -32 23 -4 21 -8 209 -8 418 0 414 9 530 64 858 153 907 538 1742 1131
2457 95 114 475 510 490 510 3 0 76 -80 161 -177z m1870 -1763 c19 -5 54 -26
76 -45 144 -123 57 -356 -132 -356 -183 0 -273 222 -141 350 55 53 124 71 197
51z m4190 -301 c108 -37 166 -144 135 -251 -25 -89 -104 -148 -196 -148 -62 0
-117 26 -158 76 -84 102 -49 254 71 310 57 26 97 30 148 13z m-4467 -184 c117
-89 282 -97 410 -20 l57 34 82 -63 c153 -116 635 -481 907 -687 286 -216 539
-408 705 -534 88 -67 227 -172 308 -233 l148 -112 -1094 0 -1095 0 30 71 c16
39 27 73 24 76 -20 20 -722 411 -728 405 -4 -4 -303 -704 -666 -1557 l-659
-1550 481 -3 c265 -1 486 0 491 2 6 2 179 425 385 940 l375 936 973 0 c534 0
972 -3 972 -7 0 -3 -26 -70 -59 -147 -32 -78 -123 -294 -201 -481 -298 -711
-374 -895 -447 -1070 -42 -102 -84 -189 -97 -201 -23 -21 -29 -21 -882 -28
-473 -4 -1340 -11 -1929 -16 l-1070 -10 -17 23 c-49 65 -205 336 -294 512
-204 404 -335 772 -433 1210 -49 216 -88 472 -76 484 10 9 291 180 1665 1016
333 202 641 390 685 417 227 139 1010 617 1013 617 2 1 18 -10 36 -24z m4175
-289 c12 -13 50 -37 84 -52 52 -24 76 -28 149 -29 l86 -1 103 -154 c56 -85
152 -231 214 -325 61 -93 191 -289 287 -435 96 -146 241 -366 323 -490 140
-212 208 -315 663 -1005 445 -674 396 -594 382 -634 -26 -77 -232 -483 -312
-616 -215 -359 -449 -663 -722 -943 -122 -124 -143 -142 -165 -138 -163 33
-572 116 -766 156 -135 27 -355 72 -490 100 -135 28 -355 73 -490 100 -135 28
-355 73 -490 100 -135 28 -354 72 -487 100 -134 27 -348 70 -476 96 l-233 48
-25 49 c-52 101 -146 175 -252 198 -29 6 -52 13 -52 16 0 2 13 35 29 71 16 37
74 175 129 307 55 132 155 371 221 530 67 160 183 437 258 618 l137 327 375
-2 374 -3 400 -937 400 -938 525 0 c415 0 523 3 519 13 -2 6 -354 783 -781
1726 -428 943 -773 1718 -769 1722 5 5 80 47 168 95 201 108 296 159 360 194
28 15 91 49 140 75 50 27 104 56 120 66 39 23 38 23 64 -5z m-2611 -4041 c49
-21 81 -52 103 -100 20 -44 25 -119 9 -159 -16 -43 -79 -104 -126 -122 -158
-60 -325 113 -257 267 23 51 65 96 108 115 41 18 118 17 163 -1z m-423 -62
c-4 -10 -10 -57 -13 -105 -2 -49 -7 -88 -11 -89 -3 0 -715 -78 -1581 -173
l-1575 -174 -63 67 c-77 80 -275 320 -331 400 l-41 59 753 7 c413 3 1150 10
1637 14 487 4 963 8 1059 9 161 2 173 1 166 -15z m1413 -323 c133 -28 352 -72
487 -100 135 -27 355 -72 490 -100 135 -27 354 -72 488 -100 133 -27 433 -88
667 -135 234 -47 434 -89 444 -94 17 -6 1 -23 -105 -111 -634 -528 -1374 -895
-2173 -1075 -83 -18 -174 -38 -203 -43 l-51 -9 -46 106 c-24 58 -86 201 -136
316 -51 116 -134 307 -185 425 -51 118 -132 305 -180 415 -48 110 -120 278
-161 373 l-75 173 12 52 12 52 236 -48 c130 -26 345 -70 479 -97z m-1316 -66
c76 -71 124 -89 243 -89 92 0 106 3 162 30 l61 31 156 -361 c85 -198 250 -578
365 -845 135 -310 207 -487 200 -491 -14 -8 -169 -26 -363 -40 -196 -15 -685
-6 -881 15 -1032 115 -1985 518 -2770 1172 -125 104 -305 271 -305 283 0 4 53
12 117 19 65 7 217 23 338 36 121 14 639 70 1150 126 512 56 1043 114 1180
130 138 15 261 28 274 29 16 1 41 -15 73 -45z"/>
</g>
</svg>
